<svg width="128" height="32" viewBox="0 0 98 42" fill="none" xmlns="http://www.w3.org/2000/svg">
<path d="M28.4609 0.644531C29.9193 0.696615 31.0521 0.722656 31.8594 0.722656C32.6667 0.722656 33.7995 0.696615 35.2578 0.644531C35.2839 0.748698 35.2969 0.820312 35.2969 0.859375C35.2969 0.93099 35.2839 1.01237 35.2578 1.10352C34.9583 1.12956 34.7142 1.15885 34.5254 1.19141C34.3431 1.21745 34.1152 1.26302 33.8418 1.32812C33.5749 1.39323 33.3698 1.48763 33.2266 1.61133C33.0833 1.72852 33.0085 1.87174 33.002 2.04102C32.9173 4.25456 32.875 6.3151 32.875 8.22266C32.875 9.61589 32.9108 11.429 32.9824 13.6621C32.9889 13.8314 33.0638 13.9779 33.207 14.1016C33.3503 14.2188 33.5553 14.3099 33.8223 14.375C34.0957 14.4401 34.3236 14.4889 34.5059 14.5215C34.6947 14.5475 34.9388 14.5736 35.2383 14.5996C35.2643 14.6777 35.2773 14.7656 35.2773 14.8633C35.2773 14.9154 35.2643 14.9805 35.2383 15.0586C34.1315 15.0195 32.9987 15 31.8398 15C30.668 15 29.5352 15.0195 28.4414 15.0586C28.4154 14.9805 28.4023 14.9154 28.4023 14.8633C28.4023 14.7526 28.4154 14.6647 28.4414 14.5996C28.6367 14.5801 28.793 14.5638 28.9102 14.5508C29.0273 14.5378 29.1868 14.515 29.3887 14.4824C29.597 14.4499 29.763 14.4141 29.8867 14.375C30.0169 14.3294 30.1504 14.2741 30.2871 14.209C30.4238 14.1439 30.5247 14.0658 30.5898 13.9746C30.6615 13.8835 30.6973 13.7793 30.6973 13.6621C30.7754 11.6243 30.8145 9.57031 30.8145 7.5C30.8145 5.39062 30.7819 3.57096 30.7168 2.04102C30.7103 1.87174 30.6354 1.72852 30.4922 1.61133C30.349 1.48763 30.1406 1.39323 29.8672 1.32812C29.6003 1.26302 29.3724 1.21745 29.1836 1.19141C29.0013 1.15885 28.7604 1.12956 28.4609 1.10352C28.4349 0.986328 28.4219 0.904948 28.4219 0.859375C28.4219 0.794271 28.4349 0.722656 28.4609 0.644531ZM44.75 0.3125C45.2513 0.3125 45.7786 0.364583 46.332 0.46875C46.8919 0.572917 47.4421 0.745443 47.9824 0.986328C48.5293 1.2207 49.0501 1.5332 49.5449 1.92383C50.0462 2.30794 50.4857 2.77995 50.8633 3.33984C51.2409 3.89974 51.5404 4.55404 51.7617 5.30273C51.9896 6.05143 52.1035 6.91081 52.1035 7.88086C52.1035 8.85742 51.9928 9.72331 51.7715 10.4785C51.5501 11.2272 51.2507 11.8815 50.873 12.4414C50.4954 12.9948 50.056 13.4635 49.5547 13.8477C49.0599 14.2253 48.5358 14.5312 47.9824 14.7656C47.4355 14.9935 46.8757 15.1562 46.3027 15.2539C45.7298 15.3581 45.1829 15.4102 44.6621 15.4102C44.1673 15.4102 43.64 15.3581 43.0801 15.2539C42.5267 15.1562 41.9766 14.9935 41.4297 14.7656C40.8828 14.5312 40.3587 14.2253 39.8574 13.8477C39.3626 13.4635 38.9232 12.9948 38.5391 12.4414C38.1615 11.8815 37.8587 11.2272 37.6309 10.4785C37.4095 9.72331 37.2988 8.85742 37.2988 7.88086C37.2988 6.87826 37.416 5.99609 37.6504 5.23438C37.8848 4.46615 38.194 3.80208 38.5781 3.24219C38.9688 2.68229 39.418 2.2168 39.9258 1.8457C40.4401 1.4681 40.9707 1.16536 41.5176 0.9375C42.071 0.709635 42.6243 0.55013 43.1777 0.458984C43.7376 0.361328 44.2617 0.3125 44.75 0.3125ZM44.7012 1.01562C44.0892 1.01562 43.5456 1.11654 43.0703 1.31836C42.5951 1.52018 42.1784 1.79362 41.8203 2.13867C41.4622 2.47721 41.1595 2.87435 40.9121 3.33008C40.6647 3.7793 40.4629 4.25781 40.3066 4.76562C40.1569 5.27344 40.0462 5.79427 39.9746 6.32812C39.9095 6.86198 39.877 7.37956 39.877 7.88086C39.877 8.36263 39.9095 8.86393 39.9746 9.38477C40.0397 9.9056 40.1471 10.4199 40.2969 10.9277C40.4466 11.429 40.6419 11.9076 40.8828 12.3633C41.1302 12.819 41.4329 13.2194 41.791 13.5645C42.1491 13.9095 42.5658 14.1862 43.041 14.3945C43.5228 14.5964 44.0762 14.6973 44.7012 14.6973C45.3132 14.6973 45.8568 14.5996 46.332 14.4043C46.8073 14.2025 47.224 13.9323 47.582 13.5938C47.9401 13.2487 48.2396 12.8516 48.4805 12.4023C48.7279 11.9466 48.9264 11.4681 49.0762 10.9668C49.2324 10.459 49.3431 9.94141 49.4082 9.41406C49.4798 8.88672 49.5156 8.37565 49.5156 7.88086C49.5156 7.37956 49.4798 6.86198 49.4082 6.32812C49.3431 5.79427 49.2324 5.27344 49.0762 4.76562C48.9264 4.25781 48.7279 3.7793 48.4805 3.33008C48.2331 2.87435 47.9303 2.47721 47.5723 2.13867C47.2142 1.79362 46.7975 1.52018 46.3223 1.31836C45.847 1.11654 45.3066 1.01562 44.7012 1.01562ZM54.9453 0.644531C55.6549 0.670573 56.5404 0.690104 57.6016 0.703125C58.6628 0.716146 59.9095 0.722656 61.3418 0.722656C62.7741 0.722656 64.0208 0.716146 65.082 0.703125C66.1497 0.690104 67.0417 0.670573 67.7578 0.644531C67.7969 0.924479 67.8457 1.19466 67.9043 1.45508C67.9629 1.70898 68.0605 1.99219 68.1973 2.30469L68.4902 2.96875L69.2031 4.35547C69.1576 4.45964 69.0436 4.54753 68.8613 4.61914C68.64 4.20898 68.3698 3.81836 68.0508 3.44727C67.7318 3.07617 67.3249 2.74089 66.8301 2.44141C66.3418 2.14193 65.7428 1.89128 65.0332 1.68945C64.3301 1.48763 63.4805 1.35091 62.4844 1.2793C62.4518 2.0931 62.4258 3.01432 62.4062 4.04297C62.3932 5.0651 62.3867 6.20443 62.3867 7.46094C62.3867 8.72396 62.3932 9.86979 62.4062 10.8984C62.4258 11.9271 62.4518 12.8483 62.4844 13.6621C62.4909 13.8184 62.5527 13.9518 62.6699 14.0625C62.7871 14.1667 62.9466 14.2546 63.1484 14.3262C63.3568 14.3978 63.5944 14.4564 63.8613 14.502C64.1348 14.541 64.4277 14.5736 64.7402 14.5996C64.7663 14.7103 64.7793 14.7982 64.7793 14.8633C64.7793 14.9219 64.7663 14.987 64.7402 15.0586C63.6465 15.0195 62.5137 15 61.3418 15C60.1764 15 59.0436 15.0195 57.9434 15.0586C57.9173 14.987 57.9043 14.9219 57.9043 14.8633C57.9043 14.7982 57.9173 14.7103 57.9434 14.5996L58.4121 14.5508C58.5814 14.5312 58.7702 14.5052 58.9785 14.4727C59.1868 14.4336 59.3789 14.3815 59.5547 14.3164C59.737 14.2513 59.89 14.1699 60.0137 14.0723C60.1374 13.9746 60.1992 13.8542 60.1992 13.7109V13.6621C60.2318 12.4707 60.2578 11.3607 60.2773 10.332C60.2969 9.30339 60.3066 8.34635 60.3066 7.46094C60.3066 6.58203 60.2969 5.63151 60.2773 4.60938C60.2578 3.58073 60.2318 2.4707 60.1992 1.2793C59.2617 1.33138 58.4447 1.45833 57.748 1.66016C57.0579 1.85547 56.459 2.10286 55.9512 2.40234C55.4434 2.69531 55.0202 3.03385 54.6816 3.41797C54.3431 3.79557 54.0632 4.19596 53.8418 4.61914C53.6595 4.54753 53.5456 4.45964 53.5 4.35547L53.9395 3.52539L54.1445 3.10547C54.2292 2.92969 54.3138 2.75065 54.3984 2.56836C54.4831 2.38607 54.5612 2.19727 54.6328 2.00195C54.7109 1.80013 54.776 1.58854 54.8281 1.36719C54.8802 1.13932 54.9193 0.898438 54.9453 0.644531ZM7.73828 26.3223C8.2526 26.3223 8.76367 26.3581 9.27148 26.4297C9.78581 26.4948 10.2773 26.5762 10.7461 26.6738C11.2214 26.765 11.6706 26.8561 12.0938 26.9473C12.5169 27.0384 12.8978 27.1035 13.2363 27.1426C13.1582 27.377 13.1191 27.7904 13.1191 28.3828C13.1191 29.5352 13.2917 30.5345 13.6367 31.3809C13.5977 31.498 13.4772 31.5697 13.2754 31.5957L12.8555 30.6973C12.6471 30.248 12.3965 29.8053 12.1035 29.3691C11.8105 28.9264 11.459 28.5326 11.0488 28.1875C10.6387 27.8359 10.1602 27.5527 9.61328 27.3379C9.07292 27.123 8.44792 27.0156 7.73828 27.0156C7.1263 27.0156 6.58268 27.1165 6.10742 27.3184C5.63216 27.5202 5.21549 27.7936 4.85742 28.1387C4.49935 28.4772 4.19661 28.8743 3.94922 29.3301C3.70182 29.7793 3.5 30.2578 3.34375 30.7656C3.19401 31.2734 3.08333 31.7943 3.01172 32.3281C2.94661 32.862 2.91406 33.3796 2.91406 33.8809C2.91406 34.7142 3.02148 35.5117 3.23633 36.2734C3.45768 37.0352 3.79948 37.709 4.26172 38.2949C4.72396 38.8743 5.3099 39.3366 6.01953 39.6816C6.73568 40.0267 7.58854 40.1992 8.57812 40.1992C10.4727 40.1992 11.9049 39.6068 12.875 38.4219C12.9792 38.4219 13.0638 38.4512 13.1289 38.5098C13.2005 38.5684 13.2363 38.64 13.2363 38.7246C12.9238 39.1868 12.543 39.5872 12.0938 39.9258C11.651 40.2643 11.179 40.5443 10.6777 40.7656C10.1764 40.9805 9.66862 41.14 9.1543 41.2441C8.64648 41.3483 8.17448 41.4004 7.73828 41.4004C7.26302 41.4004 6.7487 41.3483 6.19531 41.2441C5.64844 41.1465 5.09831 40.9805 4.54492 40.7461C3.99805 40.5117 3.4707 40.2057 2.96289 39.8281C2.46159 39.444 2.01562 38.9753 1.625 38.4219C1.23438 37.862 0.921875 37.2077 0.6875 36.459C0.453125 35.7103 0.335938 34.8509 0.335938 33.8809C0.335938 32.9043 0.453125 32.0417 0.6875 31.293C0.921875 30.5378 1.23438 29.8802 1.625 29.3203C2.02214 28.7604 2.47461 28.2917 2.98242 27.9141C3.49674 27.5299 4.02734 27.2207 4.57422 26.9863C5.12109 26.7454 5.66797 26.5762 6.21484 26.4785C6.76172 26.3743 7.26953 26.3223 7.73828 26.3223ZM19.5938 32.123C20.2383 32.123 20.8177 32.237 21.332 32.4648C21.8529 32.6927 22.2956 33.0085 22.6602 33.4121C23.0247 33.8158 23.3047 34.3008 23.5 34.8672C23.6953 35.4271 23.793 36.0391 23.793 36.7031C23.793 38.0573 23.4121 39.1576 22.6504 40.0039C21.8952 40.8568 20.8763 41.2832 19.5938 41.2832C18.9557 41.2832 18.3763 41.1725 17.8555 40.9512C17.3411 40.7233 16.9017 40.4076 16.5371 40.0039C16.1725 39.5938 15.8893 39.1087 15.6875 38.5488C15.4922 37.9889 15.3945 37.3737 15.3945 36.7031C15.3945 36.0391 15.4922 35.4271 15.6875 34.8672C15.8828 34.3008 16.1595 33.8158 16.5176 33.4121C16.8822 33.0085 17.3249 32.6927 17.8457 32.4648C18.3665 32.237 18.9492 32.123 19.5938 32.123ZM19.5938 32.7578C18.9297 32.7578 18.3991 33.0801 18.002 33.7246C17.6113 34.3691 17.416 35.362 17.416 36.7031C17.416 38.0443 17.6113 39.0371 18.002 39.6816C18.3991 40.3197 18.9297 40.6387 19.5938 40.6387C20.2578 40.6387 20.7852 40.3164 21.1758 39.6719C21.5729 39.0273 21.7715 38.0378 21.7715 36.7031C21.7715 36.0326 21.7194 35.4499 21.6152 34.9551C21.5111 34.4603 21.3646 34.0501 21.1758 33.7246C20.987 33.3991 20.7591 33.1582 20.4922 33.002C20.2253 32.8392 19.9258 32.7578 19.5938 32.7578ZM30.9121 40.5996C30.9512 40.6777 30.9707 40.7591 30.9707 40.8438C30.9707 40.9089 30.9512 40.9805 30.9121 41.0586C30.0527 41.0195 29.2194 41 28.4121 41C27.6178 41 26.791 41.0195 25.9316 41.0586C25.9056 40.9544 25.8926 40.8828 25.8926 40.8438C25.8926 40.8112 25.9056 40.7298 25.9316 40.5996C26.1465 40.5736 26.3223 40.5475 26.459 40.5215C26.5957 40.4889 26.765 40.4401 26.9668 40.375C27.1686 40.3099 27.3216 40.2188 27.4258 40.1016C27.5299 39.9779 27.5853 39.8314 27.5918 39.6621C27.6178 39.0176 27.6309 38.2363 27.6309 37.3184C27.6309 37.0124 27.6276 36.4915 27.6211 35.7559C27.6146 35.0202 27.6113 34.3757 27.6113 33.8223C27.2402 33.5944 26.6152 33.4609 25.7363 33.4219C25.7103 33.3177 25.6973 33.2363 25.6973 33.1777C25.6973 33.1387 25.7103 33.0671 25.7363 32.9629C26.9993 32.8327 28.0996 32.5658 29.0371 32.1621C29.1999 32.2272 29.3138 32.3118 29.3789 32.416V33.959C30.0104 33.4056 30.6159 32.9629 31.1953 32.6309C31.7747 32.2923 32.3607 32.123 32.9531 32.123C33.6953 32.123 34.2194 32.3314 34.5254 32.748C34.8379 33.1647 35.0007 33.8158 35.0137 34.7012L35.1113 39.6621C35.1178 39.8314 35.1667 39.9779 35.2578 40.1016C35.3555 40.2188 35.4922 40.3099 35.668 40.375C35.8503 40.4401 36 40.4889 36.1172 40.5215C36.2344 40.5475 36.3874 40.5736 36.5762 40.5996C36.6022 40.7298 36.6152 40.8177 36.6152 40.8633C36.6152 40.9154 36.6022 40.9805 36.5762 41.0586C35.7363 41.0195 34.9616 41 34.252 41C33.5618 41 32.7969 41.0195 31.957 41.0586C31.931 40.9544 31.918 40.8763 31.918 40.8242C31.918 40.7786 31.931 40.7038 31.957 40.5996C32.1263 40.5736 32.2663 40.5475 32.377 40.5215C32.4941 40.4889 32.6243 40.4401 32.7676 40.375C32.9173 40.3099 33.028 40.2188 33.0996 40.1016C33.1777 39.9779 33.2168 39.8314 33.2168 39.6621L33.2363 35.0234C33.2363 33.8451 32.8815 33.2559 32.1719 33.2559C31.5078 33.2559 30.5768 33.6986 29.3789 34.584C29.3789 36.4785 29.4049 38.1712 29.457 39.6621C29.4635 39.8314 29.5124 39.9779 29.6035 40.1016C29.7012 40.2188 29.8379 40.3099 30.0137 40.375C30.1895 40.4401 30.3359 40.4889 30.4531 40.5215C30.5703 40.5475 30.7233 40.5736 30.9121 40.5996ZM42.8457 26.957C44.0762 26.8398 45.1764 26.5729 46.1465 26.1562C46.3158 26.2279 46.4264 26.3158 46.4785 26.4199C46.4785 33.7962 46.5078 38.2103 46.5664 39.6621C46.5729 39.8314 46.6217 39.9779 46.7129 40.1016C46.8105 40.2188 46.9473 40.3099 47.123 40.375C47.2988 40.4401 47.4453 40.4889 47.5625 40.5215C47.6797 40.5475 47.8327 40.5736 48.0215 40.5996C48.0475 40.7038 48.0605 40.7852 48.0605 40.8438C48.0605 40.8828 48.0475 40.9544 48.0215 41.0586C47.7936 41.0456 47.5592 41.0326 47.3184 41.0195C47.084 41.0065 46.8984 40.9967 46.7617 40.9902C46.625 40.9837 46.498 40.9805 46.3809 40.9805C46.2832 40.9805 46.1725 40.9837 46.0488 40.9902C45.9251 40.9967 45.7559 41.0065 45.541 41.0195C45.3262 41.0326 45.1146 41.0456 44.9062 41.0586C44.8737 41.0456 44.8444 41.0293 44.8184 41.0098C44.7988 40.9967 44.7826 40.987 44.7695 40.9805C44.763 40.9674 44.7533 40.9512 44.7402 40.9316C44.7272 40.9056 44.7174 40.8893 44.7109 40.8828C44.7044 40.8763 44.6947 40.8568 44.6816 40.8242C44.6751 40.7852 44.6686 40.7624 44.6621 40.7559C44.6882 40.5996 44.7012 40.248 44.7012 39.7012C43.627 40.7559 42.6341 41.2832 41.7227 41.2832C40.7201 41.2832 39.903 40.9056 39.2715 40.1504C38.64 39.3952 38.3242 38.3665 38.3242 37.0645C38.3242 36.6152 38.3763 36.166 38.4805 35.7168C38.5846 35.2676 38.7572 34.8249 38.998 34.3887C39.2389 33.9525 39.5352 33.5684 39.8867 33.2363C40.2383 32.9043 40.6842 32.6374 41.2246 32.4355C41.765 32.2272 42.3639 32.123 43.0215 32.123C43.5098 32.123 44.0827 32.2272 44.7402 32.4355C44.7272 31.1986 44.7207 29.6589 44.7207 27.8164C44.3496 27.6016 43.7246 27.4681 42.8457 27.416C42.8197 27.3118 42.8066 27.2337 42.8066 27.1816C42.8066 27.1361 42.8197 27.0612 42.8457 26.957ZM42.6602 40.0039C43.3112 40.0039 43.998 39.6556 44.7207 38.959C44.7337 38.321 44.7402 37.1133 44.7402 35.3359V33.9199C44.291 33.1452 43.6042 32.7578 42.6797 32.7578C42.4844 32.7578 42.2891 32.7871 42.0938 32.8457C41.8984 32.9043 41.6901 33.0215 41.4688 33.1973C41.2474 33.373 41.0521 33.5977 40.8828 33.8711C40.7201 34.1445 40.5833 34.5254 40.4727 35.0137C40.362 35.4954 40.3066 36.0521 40.3066 36.6836C40.3066 37.6471 40.5052 38.4414 40.9023 39.0664C41.306 39.6914 41.8919 40.0039 42.6602 40.0039ZM49.3398 32.3379C49.5742 32.3509 49.8086 32.3639 50.043 32.377C50.2773 32.39 50.4629 32.3997 50.5996 32.4062C50.7363 32.4128 50.8633 32.416 50.9805 32.416C51.0781 32.416 51.1921 32.4128 51.3223 32.4062C51.4525 32.3997 51.6283 32.39 51.8496 32.377C52.0775 32.3639 52.2956 32.3509 52.5039 32.3379C52.6211 32.377 52.7155 32.4779 52.7871 32.6406C52.7806 32.6927 52.7676 32.7708 52.748 32.875C52.735 32.9727 52.722 33.0931 52.709 33.2363C52.7025 33.373 52.6992 33.5423 52.6992 33.7441L52.6797 38.3828C52.6797 39.5547 53.0345 40.1406 53.7441 40.1406C54.4017 40.1406 55.3359 39.7077 56.5469 38.8418C56.5469 36.9017 56.5176 35.2025 56.459 33.7441C56.459 33.627 56.4362 33.5228 56.3906 33.4316C56.3451 33.3405 56.2734 33.2624 56.1758 33.1973C56.0846 33.1322 56 33.0801 55.9219 33.041C55.8503 32.9954 55.7428 32.9564 55.5996 32.9238C55.4564 32.8848 55.3555 32.862 55.2969 32.8555C55.2383 32.8424 55.1406 32.8229 55.0039 32.7969C54.9779 32.6927 54.9648 32.6146 54.9648 32.5625C54.9648 32.5169 54.9779 32.4421 55.0039 32.3379C55.2318 32.3509 55.4629 32.3639 55.6973 32.377C55.9382 32.39 56.127 32.3997 56.2637 32.4062C56.4004 32.4128 56.5273 32.416 56.6445 32.416C56.7422 32.416 56.8561 32.4128 56.9863 32.4062C57.1165 32.3997 57.2923 32.39 57.5137 32.377C57.7415 32.3639 57.9596 32.3509 58.168 32.3379C58.2005 32.3574 58.2266 32.377 58.2461 32.3965C58.2721 32.4095 58.2917 32.429 58.3047 32.4551C58.3242 32.4746 58.3372 32.4909 58.3438 32.5039C58.3503 32.5104 58.36 32.5332 58.373 32.5723C58.3861 32.6048 58.3958 32.6276 58.4023 32.6406C58.3503 32.9922 58.3242 33.36 58.3242 33.7441C58.2852 34.7012 58.2656 35.4792 58.2656 36.0781C58.2656 36.3906 58.2721 36.9147 58.2852 37.6504C58.2982 38.3861 58.3047 39.0306 58.3047 39.584C58.6758 39.7988 59.3008 39.9323 60.1797 39.9844C60.2122 40.1471 60.2285 40.2318 60.2285 40.2383C60.2285 40.2773 60.2122 40.3457 60.1797 40.4434C58.9492 40.5605 57.849 40.8275 56.8789 41.2441C56.7096 41.1725 56.599 41.0846 56.5469 40.9805V39.457C55.8958 40.0169 55.2806 40.4629 54.7012 40.7949C54.1283 41.1204 53.5488 41.2832 52.9629 41.2832C52.2207 41.2832 51.6934 41.0749 51.3809 40.6582C51.0749 40.2415 50.9154 39.5872 50.9023 38.6953L50.8242 33.7441C50.8112 33.5944 50.7819 33.4837 50.7363 33.4121C50.6973 33.334 50.6289 33.2624 50.5312 33.1973C50.4401 33.1322 50.3555 33.0801 50.2773 33.041C50.1992 32.9954 50.0885 32.9564 49.9453 32.9238C49.8021 32.8848 49.7012 32.862 49.6426 32.8555C49.584 32.8424 49.4831 32.8229 49.3398 32.7969C49.3138 32.6927 49.3008 32.6146 49.3008 32.5625C49.3008 32.5169 49.3138 32.4421 49.3398 32.3379ZM69.5547 38.4609C69.7109 38.4935 69.8379 38.5651 69.9355 38.6758C69.61 39.5482 69.1055 40.2025 68.4219 40.6387C67.7383 41.0684 66.9961 41.2832 66.1953 41.2832C65.7982 41.2832 65.4108 41.2311 65.0332 41.127C64.6556 41.0293 64.2878 40.8665 63.9297 40.6387C63.5781 40.4108 63.2689 40.1309 63.002 39.7988C62.7415 39.4603 62.5299 39.0404 62.3672 38.5391C62.2109 38.0312 62.1328 37.4714 62.1328 36.8594C62.1328 35.4466 62.5658 34.304 63.4316 33.4316C64.2975 32.5592 65.3783 32.123 66.6738 32.123C67.5853 32.123 68.3275 32.3216 68.9004 32.7188C69.4798 33.1094 69.7695 33.6107 69.7695 34.2227C69.7695 34.5677 69.6556 34.8542 69.4277 35.082C69.1999 35.3099 68.9199 35.4238 68.5879 35.4238C68.2363 35.4238 67.9531 35.3229 67.7383 35.1211C67.5234 34.9128 67.416 34.6719 67.416 34.3984C67.416 33.9036 67.6667 33.5911 68.168 33.4609C68.1224 33.3112 67.9759 33.1582 67.7285 33.002C67.4811 32.8392 67.1296 32.7578 66.6738 32.7578C66.4395 32.7578 66.2181 32.7871 66.0098 32.8457C65.8014 32.8978 65.5768 33.0117 65.3359 33.1875C65.1016 33.3633 64.8997 33.5944 64.7305 33.8809C64.5677 34.1673 64.431 34.5677 64.3203 35.082C64.2096 35.5898 64.1543 36.1823 64.1543 36.8594C64.1543 37.3151 64.1999 37.7285 64.291 38.0996C64.3887 38.4707 64.5384 38.806 64.7402 39.1055C64.9421 39.4049 65.2188 39.6393 65.5703 39.8086C65.9219 39.9779 66.3353 40.0625 66.8105 40.0625C67.11 40.0625 67.3932 40.0234 67.6602 39.9453C67.9271 39.8607 68.1419 39.7728 68.3047 39.6816C68.474 39.5905 68.653 39.4538 68.8418 39.2715C69.0371 39.0827 69.1673 38.9492 69.2324 38.8711C69.2975 38.7865 69.4049 38.6497 69.5547 38.4609ZM74.0566 30.4629C74.1217 30.4368 74.1966 30.4238 74.2812 30.4238C74.3659 30.4238 74.4538 30.4368 74.5449 30.4629V32.6016H77.5039C77.543 32.6992 77.5625 32.8197 77.5625 32.9629C77.5625 33.0866 77.543 33.2005 77.5039 33.3047H74.5449V38.5195C74.5449 39.5482 75.0169 40.0625 75.9609 40.0625C76.319 40.0625 76.625 39.9941 76.8789 39.8574C77.1393 39.7207 77.4258 39.5156 77.7383 39.2422C77.901 39.2617 78.0085 39.3398 78.0605 39.4766C77.7741 39.9909 77.3509 40.4206 76.791 40.7656C76.2311 41.1107 75.6159 41.2832 74.9453 41.2832C73.3698 41.2832 72.582 40.3294 72.582 38.4219V33.3047H71.3809C71.3548 33.1875 71.3418 33.1126 71.3418 33.0801C71.3418 33.0736 71.3548 32.9987 71.3809 32.8555C71.6934 32.6992 71.931 32.5723 72.0938 32.4746C72.263 32.3704 72.4746 32.224 72.7285 32.0352C72.9889 31.8464 73.2233 31.625 73.4316 31.3711C73.6465 31.1107 73.8548 30.8079 74.0566 30.4629ZM83.7734 32.123C84.418 32.123 84.9974 32.237 85.5117 32.4648C86.0326 32.6927 86.4753 33.0085 86.8398 33.4121C87.2044 33.8158 87.4844 34.3008 87.6797 34.8672C87.875 35.4271 87.9727 36.0391 87.9727 36.7031C87.9727 38.0573 87.5918 39.1576 86.8301 40.0039C86.0749 40.8568 85.056 41.2832 83.7734 41.2832C83.1354 41.2832 82.556 41.1725 82.0352 40.9512C81.5208 40.7233 81.0814 40.4076 80.7168 40.0039C80.3522 39.5938 80.069 39.1087 79.8672 38.5488C79.6719 37.9889 79.5742 37.3737 79.5742 36.7031C79.5742 36.0391 79.6719 35.4271 79.8672 34.8672C80.0625 34.3008 80.3392 33.8158 80.6973 33.4121C81.0618 33.0085 81.5046 32.6927 82.0254 32.4648C82.5462 32.237 83.1289 32.123 83.7734 32.123ZM83.7734 32.7578C83.1094 32.7578 82.5788 33.0801 82.1816 33.7246C81.791 34.3691 81.5957 35.362 81.5957 36.7031C81.5957 38.0443 81.791 39.0371 82.1816 39.6816C82.5788 40.3197 83.1094 40.6387 83.7734 40.6387C84.4375 40.6387 84.9648 40.3164 85.3555 39.6719C85.7526 39.0273 85.9512 38.0378 85.9512 36.7031C85.9512 36.0326 85.8991 35.4499 85.7949 34.9551C85.6908 34.4603 85.5443 34.0501 85.3555 33.7246C85.1667 33.3991 84.9388 33.1582 84.6719 33.002C84.4049 32.8392 84.1055 32.7578 83.7734 32.7578ZM89.916 32.9629C91.179 32.8327 92.2793 32.5658 93.2168 32.1621C93.3796 32.2272 93.4935 32.3118 93.5586 32.416V34.0957C93.7995 33.64 94.1576 33.1973 94.6328 32.7676C95.1146 32.3379 95.6159 32.123 96.1367 32.123C96.5273 32.123 96.8431 32.2402 97.084 32.4746C97.3314 32.7025 97.4551 33.0182 97.4551 33.4219C97.4551 33.806 97.3411 34.1055 97.1133 34.3203C96.8854 34.5352 96.599 34.6426 96.2539 34.6426C95.9349 34.6426 95.6712 34.5417 95.4629 34.3398C95.2611 34.1315 95.1504 33.8581 95.1309 33.5195C94.8574 33.6367 94.5449 33.8971 94.1934 34.3008C93.8483 34.7044 93.6367 35.1048 93.5586 35.502C93.5586 36.9538 93.5846 38.3405 93.6367 39.6621C93.6432 39.8314 93.7051 39.9779 93.8223 40.1016C93.9395 40.2188 94.112 40.3099 94.3398 40.375C94.5677 40.4401 94.7565 40.4889 94.9062 40.5215C95.056 40.5475 95.2513 40.5736 95.4922 40.5996C95.5312 40.6777 95.5508 40.7591 95.5508 40.8438C95.5508 40.9089 95.5312 40.9805 95.4922 41.0586C94.5156 41.0195 93.5488 41 92.5918 41C91.7975 41 90.9707 41.0195 90.1113 41.0586C90.0853 40.9544 90.0723 40.8828 90.0723 40.8438C90.0723 40.8112 90.0853 40.7298 90.1113 40.5996C90.3262 40.5736 90.502 40.5475 90.6387 40.5215C90.7754 40.4889 90.9447 40.4401 91.1465 40.375C91.3483 40.3099 91.5013 40.2188 91.6055 40.1016C91.7096 39.9779 91.765 39.8314 91.7715 39.6621C91.7975 39.0176 91.8105 38.2363 91.8105 37.3184C91.8105 37.0124 91.8073 36.4915 91.8008 35.7559C91.7943 35.0202 91.791 34.3757 91.791 33.8223C91.4199 33.5944 90.7949 33.4609 89.916 33.4219C89.89 33.3177 89.877 33.2363 89.877 33.1777C89.877 33.1387 89.89 33.0671 89.916 32.9629Z" fill="white"/>
</svg>
